<?xml version="1.0" encoding="utf-8"?>
<!-- Generator: Adobe Illustrator 25.3.1, SVG Export Plug-In . SVG Version: 6.00 Build 0)  -->
<svg version="1.1" id="Layer_1" xmlns="http://www.w3.org/2000/svg" xmlns:xlink="http://www.w3.org/1999/xlink" x="0px" y="0px"
	 viewBox="27 161 976 794" style="enable-background:new 27 161 976 794;" xml:space="preserve">
<style type="text/css">
	.st0{fill:#11172E;}
	.st1{fill:#85B1DF;}
	.st2{fill:#F2C879;}
	.st3{fill:#2A6432;}
	.st4{fill:#2B405B;}
</style>
<g>
	<g>
		<polygon class="st0" points="300.5,222.9 254.3,211.4 267.5,234.9 258.1,250.8 219.1,266.1 205.1,357.9 237.4,382.7 254.3,348.3 
					"/>
		<path class="st1" d="M316.6,211.4l-13.7-38.8l-34.3,1.6c0,0-14.5,35.9-14.3,37.1l46.2,11.5L316.6,211.4z"/>
		<polygon class="st2" points="329,574 359.6,581 368.1,569.6 371.6,541.3 331.5,539.8 		"/>
		<polygon class="st2" points="318.5,717.8 281.4,826.6 260.5,832.8 251.6,853.6 260.7,884.1 304.6,855.2 341.3,766.4 318.8,714 		
			"/>
		<polygon class="st2" points="200.5,608.2 253.3,561.4 205.1,448.7 96.1,495.6 77,561.4 		"/>
		<polygon class="st0" points="371.6,541.3 385.6,428.1 376.1,411.8 381.3,368.8 365,388.8 312.7,393.1 287.9,375.2 306.6,411.4 
			301.4,431.6 331.5,539.8 		"/>
		<polygon class="st1" points="324.7,633.3 324.7,633.3 331.5,539.8 301.4,431.6 253.3,561.4 253.3,561.4 278.1,619.1 287.9,642 
			287.9,642 287.9,642 318.8,714 324.7,633.3 		"/>
		<polygon class="st3" points="253.3,561.4 301.4,431.6 237.4,382.7 205.1,448.7 253.3,561.4 		"/>
	</g>
	<polygon class="st4" points="253.4,561.4 200.5,608.2 253.4,561.4 200.5,608.2 287.9,642 278.1,619.1 	"/>
	<polygon class="st3" points="318.8,714 341.3,766.4 356.9,709.4 341.3,766.4 356.9,709.4 324.7,633.3 	"/>
	<polygon class="st4" points="341.3,766.4 356.9,709.4 341.3,766.4 379.4,861.1 380.6,891.5 398.3,905.9 441.2,905 356.9,709.4 	"/>
</g>
<g>
	<g>
		<path class="st0" d="M494.4,307.7v2.5c-1.6,0.5-3.4,1.7-5.2,3.8c-1.8,2-3.8,5.1-5.9,9.3l-23.7,47.1H455l-28.8-53.1
			c-1.6-2.9-2.9-4.7-4.1-5.6c-1.1-0.9-2.2-1.3-3.1-1.3v-2.6c2,0.1,4,0.2,6.2,0.3c2.2,0.1,4.5,0.2,7.1,0.2c3.3,0,6.8,0,10.6-0.1
			c3.8-0.1,7.3-0.2,10.6-0.4v2.6c-2.1,0-3.9,0.2-5.5,0.5c-1.6,0.3-2.7,1-3.3,2.1c-0.6,1.1-0.4,2.6,0.6,4.7l19.9,38.1l-3,3.4l14-27.8
			c2.7-5.4,4.1-9.6,4.2-12.7c0.1-3-0.7-5.2-2.6-6.5c-1.8-1.3-4.4-1.9-7.8-2v-2.5c2.7,0.1,5.3,0.2,7.7,0.2c2.4,0.1,4.8,0.1,7.2,0.1
			c2,0,3.7,0,5.2-0.1C491.8,307.8,493.2,307.8,494.4,307.7z M467.1,352.9v28.8c0,3,0.2,5.2,0.7,6.6s1.4,2.5,2.8,3
			c1.4,0.5,3.3,0.8,6,1v2.5c-2.1-0.2-4.7-0.3-8-0.3c-3.3,0-6.6-0.1-9.8-0.1c-3.5,0-6.9,0-10.1,0.1c-3.2,0-5.8,0.1-7.8,0.3v-2.5
			c2.7-0.2,4.7-0.5,6.1-1c1.4-0.5,2.3-1.5,2.7-3c0.5-1.5,0.7-3.7,0.7-6.6v-25.2l9.3,7.6L467.1,352.9z"/>
		<path class="st0" d="M535.8,329.4c5.7,0,10.7,1.1,15.1,3.4c4.4,2.3,7.9,5.8,10.5,10.8s3.9,11.4,3.9,19.4c0,8-1.3,14.5-3.9,19.4
			c-2.6,4.9-6.1,8.5-10.5,10.7c-4.4,2.2-9.4,3.3-15.1,3.3c-5.7,0-10.7-1.1-15.1-3.3c-4.4-2.2-7.9-5.8-10.5-10.7
			c-2.5-4.9-3.8-11.4-3.8-19.4c0-8,1.3-14.5,3.8-19.4c2.5-4.9,6-8.5,10.5-10.8C525.1,330.6,530.2,329.4,535.8,329.4z M535.8,331.9
			c-3.9,0-7,2.4-9.4,7.3c-2.4,4.9-3.6,12.8-3.6,23.8c0,11,1.2,18.9,3.6,23.7c2.4,4.8,5.6,7.3,9.4,7.3c3.8,0,6.9-2.4,9.3-7.3
			c2.5-4.8,3.7-12.7,3.7-23.7c0-11-1.2-18.9-3.7-23.8C542.7,334.3,539.6,331.9,535.8,331.9z"/>
		<path class="st0" d="M639.2,329.8v51.7c0,3.7,0.6,6.4,1.8,8.2c1.2,1.8,3.4,2.6,6.5,2.6v2.6c-2.5-0.2-5.1-0.4-7.6-0.4
			c-3,0-5.9,0.1-8.7,0.4c-2.7,0.2-5.3,0.7-7.6,1.4v-12.3c-2.1,4.5-4.9,7.7-8.4,9.7s-7.4,2.9-11.5,2.9c-3.2,0-5.9-0.4-8.1-1.3
			c-2.2-0.9-3.9-2-5.2-3.5c-1.4-1.6-2.4-3.6-3-6.1c-0.6-2.5-0.9-5.8-0.9-9.8v-31.1c0-3.7-0.6-6.4-1.8-8.2c-1.2-1.8-3.4-2.6-6.6-2.6
			v-2.6c2.6,0.2,5.2,0.4,7.6,0.4c3,0,5.9-0.1,8.7-0.4c2.7-0.3,5.3-0.7,7.6-1.3V380c0,2.2,0.2,4.2,0.6,5.9s1.1,3.1,2.3,4.1
			c1.1,1,2.9,1.5,5.2,1.5c2.5,0,4.8-0.7,6.9-2.2c2-1.5,3.7-3.5,4.9-6c1.2-2.5,1.8-5.4,1.8-8.6v-30.1c0-3.7-0.6-6.4-1.8-8.2
			c-1.2-1.8-3.4-2.6-6.6-2.6v-2.6c2.6,0.2,5.2,0.4,7.6,0.4c3,0,5.9-0.1,8.7-0.4C634.3,330.8,636.9,330.4,639.2,329.8z"/>
		<path class="st0" d="M700.4,329.4c2.5,0,4.7,0.5,6.3,1.6c1.7,1.1,2.9,2.4,3.8,4.1c0.8,1.6,1.2,3.4,1.2,5.2c0,2.7-0.8,5-2.4,6.8
			c-1.6,1.8-3.7,2.7-6.3,2.7c-2.5,0-4.5-0.7-6-2c-1.6-1.3-2.3-3.1-2.3-5.4c0-2,0.5-3.8,1.5-5.2c1-1.4,2.2-2.5,3.5-3.3
			c-0.9-0.5-1.9-0.7-3.1-0.5c-2,0.2-3.8,0.9-5.4,2.1c-1.6,1.2-3,2.7-4.2,4.6c-1.1,1.8-2,3.7-2.6,5.8c-0.6,2.1-0.9,4-0.9,5.9v30.4
			c0,4,1,6.7,3.1,8.1c2,1.4,5,2,9,2v2.6c-1.9-0.1-4.6-0.2-8.2-0.3s-7.3-0.2-11.1-0.2c-3.2,0-6.4,0.1-9.5,0.2
			c-3.2,0.1-5.5,0.2-7.1,0.3v-2.6c3,0,5.2-0.6,6.5-1.8c1.3-1.2,1.9-3.6,1.9-7v-38.7c0-3.7-0.6-6.4-1.8-8.2c-1.2-1.8-3.4-2.6-6.6-2.6
			v-2.6c2.6,0.2,5.2,0.4,7.6,0.4c3,0,5.9-0.1,8.7-0.4c2.7-0.3,5.3-0.7,7.6-1.3v12.8c1-2.3,2.3-4.4,3.9-6.4c1.6-2,3.5-3.6,5.8-4.9
			C695.4,330.1,697.8,329.4,700.4,329.4z"/>
		<path class="st0" d="M460.7,431.7c15.7,0,27.4,3.7,35,11c7.6,7.3,11.4,17.9,11.4,31.5c0,8.9-1.9,16.7-5.6,23.4
			c-3.7,6.7-9.1,11.9-16.2,15.6c-7.1,3.7-15.6,5.5-25.7,5.5c-1.2,0-2.9,0-5-0.1c-2.1-0.1-4.3-0.1-6.5-0.2c-2.3,0-4.3-0.1-6.2-0.1
			c-3.4,0-6.6,0-9.8,0.1c-3.2,0-5.8,0.1-7.9,0.3v-2.5c2.7-0.2,4.7-0.5,6.1-1c1.4-0.5,2.3-1.5,2.7-3c0.4-1.5,0.7-3.7,0.7-6.6v-61
			c0-3-0.2-5.3-0.7-6.7c-0.5-1.4-1.4-2.4-2.7-3c-1.4-0.5-3.4-0.8-6.1-0.9v-2.5c2,0.1,4.7,0.2,7.9,0.3s6.4,0.1,9.6,0.1
			c3-0.1,6.3-0.2,10-0.2C455.3,431.7,458.3,431.7,460.7,431.7z M459.6,433.9c-3.8,0-6.2,0.7-7.4,2.1c-1.1,1.4-1.7,4.2-1.7,8.5V506
			c0,4.3,0.6,7.1,1.8,8.5c1.2,1.4,3.7,2.1,7.4,2.1c7.6,0,13.6-1.6,17.9-4.9c4.3-3.2,7.3-8,9.1-14.2c1.8-6.2,2.6-13.8,2.6-22.8
			c0-9.2-1-16.8-2.9-22.8c-1.9-6-5.1-10.5-9.4-13.5C472.7,435.4,466.9,433.9,459.6,433.9z"/>
		<path class="st0" d="M563.4,453.4c2.5,0,4.7,0.5,6.3,1.6c1.7,1.1,2.9,2.4,3.8,4.1c0.8,1.6,1.2,3.4,1.2,5.2c0,2.7-0.8,5-2.4,6.8
			c-1.6,1.8-3.7,2.7-6.3,2.7c-2.5,0-4.5-0.7-6-2c-1.6-1.3-2.3-3.1-2.3-5.4c0-2,0.5-3.8,1.5-5.2c1-1.4,2.2-2.5,3.5-3.3
			c-0.9-0.5-1.9-0.7-3.1-0.5c-2,0.2-3.8,0.9-5.4,2.1c-1.6,1.2-3,2.7-4.2,4.6c-1.1,1.8-2,3.7-2.6,5.8c-0.6,2.1-0.9,4-0.9,5.9v30.4
			c0,4,1,6.7,3.1,8.1c2,1.4,5,2,9,2v2.6c-1.9-0.1-4.6-0.2-8.2-0.3s-7.3-0.2-11.1-0.2c-3.2,0-6.4,0.1-9.5,0.2
			c-3.2,0.1-5.5,0.2-7.1,0.3v-2.6c3,0,5.2-0.6,6.5-1.8c1.3-1.2,1.9-3.6,1.9-7v-38.7c0-3.7-0.6-6.4-1.8-8.2c-1.2-1.8-3.4-2.6-6.6-2.6
			v-2.6c2.6,0.2,5.2,0.4,7.6,0.4c3,0,5.9-0.1,8.7-0.4c2.7-0.3,5.3-0.7,7.6-1.3v12.8c1-2.3,2.3-4.4,3.9-6.4c1.6-2,3.5-3.6,5.8-4.9
			C558.3,454.1,560.8,453.4,563.4,453.4z"/>
		<path class="st0" d="M616.4,453.4c7.2,0,12.9,2.2,17,6.5c4.1,4.3,6.2,11.3,6.2,20.8h-41.5l-0.1-2.3h27.3c0.2-4-0.1-7.7-0.7-11.1
			c-0.7-3.4-1.7-6.1-3.1-8.2c-1.4-2-3.3-3.1-5.6-3.1c-3.1,0-5.8,1.8-8.1,5.5c-2.3,3.6-3.7,9.6-4.3,17.9l0.5,0.7
			c-0.2,1.1-0.3,2.2-0.3,3.4c0,1.2-0.1,2.5-0.1,3.7c0,5.7,0.8,10.3,2.5,14c1.6,3.7,3.8,6.4,6.4,8.1c2.6,1.7,5.3,2.6,8.1,2.6
			c1.9,0,3.8-0.3,5.8-0.9c2-0.6,3.9-1.6,5.8-3.2c1.9-1.6,3.6-3.8,5.2-6.6l2.3,1c-0.9,2.9-2.4,5.7-4.5,8.5c-2.1,2.8-4.8,5.1-8.1,6.9
			c-3.3,1.8-7.1,2.7-11.6,2.7c-5.6,0-10.5-1.2-14.8-3.7c-4.3-2.5-7.6-6.1-10-11c-2.4-4.9-3.6-10.8-3.6-17.9c0-7.5,1.2-13.7,3.8-18.8
			c2.5-5.1,6-9,10.4-11.6C605.7,454.8,610.8,453.4,616.4,453.4z"/>
		<path class="st0" d="M677.4,453.4c3.4,0,6.4,0.5,8.9,1.5s4.3,1.8,5.4,2.6c2.8,2.1,4.5,0.7,5-3.9h2.7c-0.2,2.4-0.3,5.2-0.4,8.4
			c-0.1,3.2-0.1,7.6-0.1,13h-2.7c-0.4-3-1.2-6-2.3-8.9c-1.1-2.9-2.8-5.3-5-7.2c-2.2-1.9-5.1-2.9-8.7-2.9c-2.5,0-4.7,0.7-6.3,2.2
			c-1.7,1.5-2.5,3.6-2.5,6.3c0,2.5,0.7,4.6,2.2,6.5c1.5,1.8,3.4,3.6,5.7,5.2c2.3,1.6,4.8,3.3,7.3,5.2c3,2,5.6,4,7.9,6
			c2.3,2,4.1,4.2,5.5,6.6c1.4,2.4,2.1,5.3,2.1,8.5c0,3.8-1,7-3.1,9.7c-2.1,2.7-4.8,4.7-8.2,6.1c-3.4,1.4-7.2,2.2-11.3,2.2
			c-2.2,0-4.2-0.2-6-0.6c-1.8-0.4-3.4-0.9-4.8-1.6c-1.1-0.6-2-1.1-2.9-1.6c-0.9-0.5-1.7-0.9-2.6-1.2c-0.8-0.4-1.5-0.2-2.2,0.5
			c-0.6,0.7-1.1,2-1.4,3.7h-2.7c0.2-2.6,0.3-5.8,0.4-9.6c0.1-3.8,0.1-8.8,0.1-15h2.7c0.6,4.5,1.5,8.5,2.6,11.9
			c1.2,3.4,2.9,6.1,5.2,8c2.3,1.9,5.2,2.9,8.9,2.9c1.6,0,3.1-0.3,4.5-1c1.4-0.7,2.6-1.7,3.6-3.1c0.9-1.4,1.4-3.3,1.4-5.7
			c0-3.6-1.2-6.6-3.7-9c-2.5-2.4-5.5-4.9-9.2-7.6c-2.8-2-5.4-4.1-7.8-6c-2.4-2-4.4-4.2-5.9-6.6c-1.5-2.5-2.3-5.4-2.3-8.7
			c0-3.7,0.9-6.7,2.8-9.2c1.9-2.4,4.4-4.3,7.4-5.5C670.6,454.1,673.9,453.4,677.4,453.4z"/>
		<path class="st0" d="M740,453.4c3.4,0,6.4,0.5,8.9,1.5s4.3,1.8,5.4,2.6c2.8,2.1,4.5,0.7,5-3.9h2.7c-0.2,2.4-0.3,5.2-0.4,8.4
			c-0.1,3.2-0.1,7.6-0.1,13h-2.7c-0.4-3-1.2-6-2.3-8.9c-1.1-2.9-2.8-5.3-5-7.2c-2.2-1.9-5.1-2.9-8.7-2.9c-2.5,0-4.7,0.7-6.3,2.2
			c-1.7,1.5-2.5,3.6-2.5,6.3c0,2.5,0.7,4.6,2.2,6.5c1.5,1.8,3.4,3.6,5.7,5.2c2.3,1.6,4.8,3.3,7.3,5.2c3,2,5.6,4,7.9,6
			c2.3,2,4.1,4.2,5.5,6.6c1.4,2.4,2.1,5.3,2.1,8.5c0,3.8-1,7-3.1,9.7c-2.1,2.7-4.8,4.7-8.2,6.1c-3.4,1.4-7.2,2.2-11.3,2.2
			c-2.2,0-4.2-0.2-6-0.6c-1.8-0.4-3.4-0.9-4.8-1.6c-1.1-0.6-2-1.1-2.9-1.6c-0.9-0.5-1.7-0.9-2.6-1.2c-0.8-0.4-1.5-0.2-2.2,0.5
			c-0.6,0.7-1.1,2-1.4,3.7h-2.7c0.2-2.6,0.3-5.8,0.4-9.6c0.1-3.8,0.1-8.8,0.1-15h2.7c0.6,4.5,1.5,8.5,2.6,11.9
			c1.2,3.4,2.9,6.1,5.2,8c2.3,1.9,5.2,2.9,8.9,2.9c1.6,0,3.1-0.3,4.5-1c1.4-0.7,2.6-1.7,3.6-3.1c0.9-1.4,1.4-3.3,1.4-5.7
			c0-3.6-1.2-6.6-3.7-9c-2.5-2.4-5.5-4.9-9.2-7.6c-2.8-2-5.4-4.1-7.8-6c-2.4-2-4.4-4.2-5.9-6.6c-1.5-2.5-2.3-5.4-2.3-8.7
			c0-3.7,0.9-6.7,2.8-9.2c1.9-2.4,4.4-4.3,7.4-5.5C733.2,454.1,736.5,453.4,740,453.4z"/>
		<path class="st0" d="M796.2,519.6c-3.5,0-6.5-0.7-9-2s-4.3-3.2-5.5-5.5c-1.2-2.3-1.8-4.9-1.8-7.8c0-3.5,0.8-6.4,2.5-8.7
			c1.6-2.3,3.8-4.1,6.3-5.4s5.3-2.5,8.2-3.4c2.9-0.9,5.6-1.8,8.1-2.7c2.5-0.9,4.6-1.9,6.3-3c1.6-1.1,2.5-2.7,2.5-4.6v-9
			c0-2.6-0.4-4.8-1.2-6.5c-0.8-1.7-1.9-3-3.4-3.8c-1.5-0.9-3.4-1.3-5.7-1.3c-1.7,0-3.5,0.2-5.4,0.7c-1.9,0.5-3.4,1.4-4.7,2.8
			c2.1,0.6,3.8,1.6,5,3.2c1.2,1.6,1.8,3.4,1.8,5.7c0,2.5-0.8,4.5-2.5,6c-1.7,1.4-3.8,2.2-6.3,2.2c-2.7,0-4.8-0.9-6.2-2.6
			c-1.4-1.7-2.1-3.7-2.1-6c0-2.3,0.6-4.2,1.7-5.7c1.1-1.5,2.7-2.9,4.8-4.1c2-1.4,4.7-2.5,7.9-3.3c3.2-0.8,6.7-1.2,10.5-1.2
			c3.6,0,6.8,0.4,9.6,1.2c2.8,0.8,5.2,2.2,7.1,4.1c2,1.9,3.2,4.2,3.8,7c0.6,2.8,0.9,6.2,0.9,10.2v33.7c0,2.1,0.2,3.5,0.7,4.4
			c0.5,0.9,1.3,1.3,2.3,1.3c0.8,0,1.6-0.2,2.3-0.6c0.7-0.4,1.6-1,2.5-1.7l1.4,2.1c-1.8,1.4-3.7,2.5-5.7,3.3c-2,0.8-4.3,1.2-7.1,1.2
			c-2.9,0-5.1-0.4-6.8-1.2c-1.7-0.8-2.9-2-3.7-3.6c-0.8-1.6-1.2-3.4-1.3-5.5c-2,3.3-4.4,5.8-7.3,7.6
			C803.7,518.7,800.2,519.6,796.2,519.6z M803.6,512.7c2,0,3.8-0.5,5.5-1.6c1.7-1.1,3.2-2.7,4.6-4.8v-24.8c-0.8,1.2-2,2.3-3.5,3.3
			c-1.5,1-3.1,2-4.9,3c-1.7,1-3.3,2.1-4.9,3.4c-1.5,1.3-2.8,2.8-3.8,4.7c-1,1.8-1.5,4.2-1.5,7.1c0,3.2,0.8,5.6,2.3,7.3
			C799,511.9,801.1,512.7,803.6,512.7z"/>
		<path class="st0" d="M871.8,541.9c-4.8,0-9.2-0.5-13.2-1.4c-3.9-0.9-7.1-2.2-9.3-4c-2.3-1.8-3.4-4-3.4-6.7c0-2.6,1.1-5,3.4-7
			c2.3-2.1,5.7-3.6,10.1-4.7l0.9,2c-1.6,0.9-2.7,2.1-3.6,3.7c-0.8,1.6-1.2,3.2-1.2,4.9c0,3.5,1.6,6.3,4.9,8.2
			c3.2,1.9,7.6,2.9,13,2.9c3.7,0,7.1-0.5,10.2-1.5c3.1-1,5.6-2.5,7.5-4.6c1.9-2.1,2.8-4.6,2.8-7.6c0-2.5-0.9-4.7-2.8-6.4
			c-1.8-1.7-5.5-2.6-11-2.6h-8.1c-3,0-5.8-0.3-8.3-1c-2.5-0.7-4.5-1.7-6-3.2c-1.5-1.5-2.2-3.5-2.2-6.2c0-3.2,1.3-6.1,3.9-8.7
			c2.6-2.6,6.7-5.1,12.3-7.6l1.4,1.1c-2.1,1.1-3.9,2.2-5.5,3.4c-1.6,1.2-2.4,2.8-2.4,4.7c0,2.6,1.8,3.9,5.4,3.9h13.9
			c4.3,0,8.1,0.5,11.4,1.6c3.3,1.1,6,2.7,7.9,5c2,2.3,3,5.3,3,9.1c0,3.9-1.3,7.6-3.8,11c-2.5,3.4-6.4,6.1-11.5,8.2
			C886.2,540.8,879.7,541.9,871.8,541.9z M872.9,492.6c-4.4,0-8.4-0.7-12-2c-3.6-1.4-6.4-3.5-8.4-6.4c-2.1-2.9-3.1-6.6-3.1-11.1
			c0-4.5,1-8.2,3.1-11.1c2-2.9,4.9-5,8.4-6.4c3.6-1.4,7.6-2.1,12-2.1c4.5,0,8.5,0.7,12.1,2.1c3.5,1.4,6.3,3.5,8.4,6.4
			c2,2.9,3.1,6.6,3.1,11.1c0,4.5-1,8.2-3.1,11.1c-2.1,2.9-4.8,5-8.4,6.4C881.4,491.9,877.4,492.6,872.9,492.6z M872.9,490.3
			c2.5,0,4.4-1.2,5.8-3.8c1.4-2.5,2.2-7,2.2-13.6c0-6.6-0.7-11.1-2.2-13.6c-1.4-2.5-3.4-3.8-5.8-3.8s-4.4,1.3-5.8,3.8
			c-1.4,2.5-2.2,7-2.2,13.6c0,6.6,0.7,11.1,2.2,13.6C868.5,489.1,870.4,490.3,872.9,490.3z M891.4,463.9l-2.3-0.9
			c1.2-3,3.2-5.6,6-7.7c2.8-2.1,5.7-3.1,8.9-3.1c2.4,0,4.2,0.7,5.6,2c1.4,1.3,2,3.2,2,5.5c0,2.5-0.7,4.3-2,5.4
			c-1.3,1.1-2.7,1.7-4.3,1.7c-1.4,0-2.7-0.5-3.8-1.4c-1.1-0.9-1.8-2.4-2-4.4c-0.2-2,0.5-4.5,2-7.6l1.2,0.5c-3.2,1.2-5.6,2.6-7.1,4.1
			C894.1,459.5,892.7,461.4,891.4,463.9z"/>
		<path class="st0" d="M952.8,453.4c7.2,0,12.9,2.2,17,6.5c4.1,4.3,6.2,11.3,6.2,20.8h-41.5l-0.1-2.3h27.3c0.2-4-0.1-7.7-0.7-11.1
			c-0.7-3.4-1.7-6.1-3.1-8.2c-1.4-2-3.3-3.1-5.6-3.1c-3.1,0-5.8,1.8-8.1,5.5c-2.3,3.6-3.7,9.6-4.3,17.9l0.5,0.7
			c-0.2,1.1-0.3,2.2-0.3,3.4c0,1.2-0.1,2.5-0.1,3.7c0,5.7,0.8,10.3,2.5,14c1.6,3.7,3.8,6.4,6.4,8.1c2.6,1.7,5.3,2.6,8.1,2.6
			c1.9,0,3.8-0.3,5.8-0.9c2-0.6,3.9-1.6,5.8-3.2c1.9-1.6,3.6-3.8,5.2-6.6l2.3,1c-0.9,2.9-2.4,5.7-4.5,8.5c-2.1,2.8-4.8,5.1-8.1,6.9
			c-3.3,1.8-7.1,2.7-11.6,2.7c-5.6,0-10.5-1.2-14.8-3.7c-4.3-2.5-7.6-6.1-10-11c-2.4-4.9-3.6-10.8-3.6-17.9c0-7.5,1.2-13.7,3.8-18.8
			c2.5-5.1,6-9,10.4-11.6C942.1,454.8,947.2,453.4,952.8,453.4z"/>
		<path class="st0" d="M417,665.9v-2.5c3.4-0.2,6.3-1.1,8.7-2.7c2.4-1.6,4.2-4.4,5.5-8.4c1.2-3.9,1.8-9.3,1.8-16.1v-67.5
			c0-3-0.2-5.3-0.7-6.7c-0.5-1.4-1.4-2.4-2.8-3c-1.4-0.5-3.4-0.8-6-0.9v-2.5c1.9,0.1,4.4,0.2,7.6,0.2c3.2,0.1,6.5,0.1,9.9,0.1
			c3.4,0,6.8,0,10.1-0.1c3.3-0.1,6-0.2,8.2-0.2v2.5c-2.7,0.1-4.7,0.4-6.1,0.9c-1.4,0.5-2.3,1.5-2.7,3c-0.5,1.4-0.7,3.7-0.7,6.7v45
			c0,3.4,0,7-0.1,10.9c0,3.9-0.2,7.7-0.5,11.4c-0.3,3.7-0.8,6.9-1.5,9.7c-1.6,5.7-4.9,10.5-10.1,14.3
			C432.5,664,425.6,665.9,417,665.9z"/>
		<path class="st0" d="M503.9,577.4c5.7,0,10.7,1.1,15.1,3.4c4.4,2.3,7.9,5.8,10.5,10.8s3.9,11.4,3.9,19.4c0,8-1.3,14.5-3.9,19.4
			c-2.6,4.9-6.1,8.5-10.5,10.7c-4.4,2.2-9.4,3.3-15.1,3.3c-5.7,0-10.7-1.1-15.1-3.3c-4.4-2.2-7.9-5.8-10.5-10.7
			c-2.5-4.9-3.8-11.4-3.8-19.4c0-8,1.3-14.5,3.8-19.4c2.5-4.9,6-8.5,10.5-10.8C493.2,578.6,498.2,577.4,503.9,577.4z M503.9,579.9
			c-3.9,0-7,2.4-9.4,7.3c-2.4,4.9-3.6,12.8-3.6,23.8c0,11,1.2,18.9,3.6,23.7c2.4,4.8,5.6,7.3,9.4,7.3c3.8,0,6.9-2.4,9.3-7.3
			c2.5-4.8,3.7-12.8,3.7-23.7c0-11-1.2-18.9-3.7-23.8C510.8,582.3,507.6,579.9,503.9,579.9z"/>
		<path class="st0" d="M607.2,577.8v51.7c0,3.7,0.6,6.4,1.8,8.2c1.2,1.8,3.4,2.6,6.5,2.6v2.6c-2.5-0.2-5.1-0.4-7.6-0.4
			c-3,0-5.9,0.1-8.7,0.4c-2.7,0.2-5.3,0.7-7.6,1.4v-12.3c-2.1,4.5-4.9,7.7-8.4,9.7s-7.4,2.9-11.5,2.9c-3.2,0-5.9-0.4-8.1-1.3
			c-2.2-0.9-3.9-2-5.2-3.5c-1.4-1.6-2.4-3.6-3-6.2c-0.6-2.5-0.9-5.8-0.9-9.8v-31.1c0-3.7-0.6-6.4-1.8-8.2c-1.2-1.8-3.4-2.6-6.6-2.6
			v-2.6c2.6,0.2,5.2,0.4,7.6,0.4c3,0,5.9-0.1,8.7-0.4c2.7-0.3,5.3-0.7,7.6-1.3V628c0,2.2,0.2,4.2,0.6,5.9c0.4,1.7,1.1,3.1,2.3,4.1
			c1.1,1,2.9,1.5,5.2,1.5c2.5,0,4.8-0.7,6.9-2.2c2-1.5,3.7-3.5,4.9-6c1.2-2.5,1.8-5.4,1.8-8.6v-30.1c0-3.7-0.6-6.4-1.8-8.2
			c-1.2-1.8-3.4-2.6-6.6-2.6v-2.6c2.6,0.2,5.2,0.4,7.6,0.4c3,0,5.9-0.1,8.7-0.4C602.4,578.8,604.9,578.4,607.2,577.8z"/>
		<path class="st0" d="M668.4,577.4c2.5,0,4.7,0.5,6.3,1.6c1.7,1.1,2.9,2.4,3.8,4.1c0.8,1.6,1.2,3.4,1.2,5.2c0,2.7-0.8,5-2.4,6.8
			c-1.6,1.8-3.7,2.7-6.3,2.7c-2.5,0-4.5-0.7-6-2c-1.6-1.3-2.3-3.1-2.3-5.4c0-2,0.5-3.8,1.5-5.2c1-1.4,2.2-2.5,3.5-3.3
			c-0.9-0.5-1.9-0.7-3.1-0.5c-2,0.2-3.8,0.9-5.4,2.1c-1.6,1.2-3,2.7-4.2,4.6c-1.1,1.8-2,3.7-2.6,5.8c-0.6,2.1-0.9,4-0.9,5.9v30.4
			c0,4,1,6.7,3.1,8.1c2,1.4,5,2,9,2v2.6c-1.9-0.1-4.6-0.2-8.2-0.3s-7.3-0.2-11.1-0.2c-3.2,0-6.4,0.1-9.5,0.2
			c-3.2,0.1-5.5,0.2-7.1,0.3v-2.6c3,0,5.2-0.6,6.5-1.8c1.3-1.2,1.9-3.6,1.9-7v-38.7c0-3.7-0.6-6.4-1.8-8.2c-1.2-1.8-3.4-2.6-6.6-2.6
			v-2.6c2.6,0.2,5.2,0.4,7.6,0.4c3,0,5.9-0.1,8.7-0.4c2.7-0.3,5.3-0.7,7.6-1.3v12.8c1-2.3,2.3-4.4,3.9-6.4c1.6-2,3.5-3.6,5.8-4.9
			C663.4,578.1,665.8,577.4,668.4,577.4z"/>
		<path class="st0" d="M734.6,577.4c3.4,0,6.2,0.5,8.3,1.4c2.1,0.9,3.8,2.1,5.1,3.4c1.5,1.6,2.5,3.6,3.1,6s0.9,5.8,0.9,10v33.1
			c0,3.4,0.6,5.8,1.9,7c1.3,1.2,3.4,1.8,6.5,1.8v2.6c-1.5-0.1-3.8-0.2-6.8-0.3s-6-0.2-8.9-0.2c-3,0-6,0.1-8.9,0.2
			c-2.9,0.1-5,0.2-6.4,0.3v-2.6c2.6,0,4.5-0.6,5.5-1.8c1.1-1.2,1.6-3.6,1.6-7V594c0-2.2-0.2-4.2-0.6-6c-0.4-1.8-1.2-3.2-2.5-4.2
			c-1.2-1-3-1.5-5.3-1.5c-2.7,0-5.1,0.7-7.2,2.2c-2.1,1.5-3.7,3.5-4.9,6.1c-1.2,2.6-1.8,5.5-1.8,8.7v32c0,3.4,0.5,5.8,1.6,7
			c1.1,1.2,2.9,1.8,5.5,1.8v2.6c-1.4-0.1-3.5-0.2-6.3-0.3c-2.8-0.1-5.6-0.2-8.5-0.2c-3,0-6.1,0.1-9.2,0.2c-3.1,0.1-5.5,0.2-7,0.3
			v-2.6c3,0,5.2-0.6,6.5-1.8c1.3-1.2,1.9-3.6,1.9-7v-38.7c0-3.7-0.6-6.4-1.8-8.2c-1.2-1.8-3.4-2.6-6.6-2.6v-2.6
			c2.6,0.2,5.2,0.4,7.6,0.4c3,0,5.9-0.1,8.7-0.4c2.7-0.3,5.3-0.7,7.6-1.3v12.3c2-4.7,4.9-8,8.5-9.8
			C726.4,578.4,730.3,577.4,734.6,577.4z"/>
		<path class="st0" d="M802.6,577.4c7.2,0,12.9,2.2,17,6.5c4.1,4.3,6.2,11.3,6.2,20.8h-41.5l-0.1-2.3h27.3c0.2-4-0.1-7.7-0.7-11.1
			c-0.7-3.4-1.7-6.1-3.1-8.2c-1.4-2-3.3-3.1-5.6-3.1c-3.1,0-5.8,1.8-8.1,5.5c-2.3,3.6-3.7,9.6-4.3,17.9l0.5,0.7
			c-0.2,1.1-0.3,2.2-0.3,3.4c0,1.2-0.1,2.5-0.1,3.7c0,5.7,0.8,10.3,2.5,14c1.6,3.7,3.8,6.4,6.4,8.1c2.6,1.7,5.3,2.6,8.1,2.6
			c1.9,0,3.8-0.3,5.8-0.9c2-0.6,3.9-1.6,5.8-3.2c1.9-1.6,3.6-3.8,5.2-6.6l2.3,1c-0.9,2.9-2.4,5.7-4.5,8.5c-2.1,2.8-4.8,5.1-8.1,6.9
			c-3.3,1.8-7.1,2.7-11.6,2.7c-5.6,0-10.5-1.2-14.8-3.7c-4.3-2.5-7.6-6.1-10-11c-2.4-4.9-3.6-10.8-3.6-17.9c0-7.5,1.2-13.7,3.8-18.8
			c2.5-5.1,6-9,10.4-11.6C791.9,578.8,797,577.4,802.6,577.4z"/>
		<path class="st0" d="M899.2,579.2v2.6c-1.6,0.3-3,1.2-4.4,2.6c-1.4,1.4-2.6,3.9-3.9,7.4l-18.2,49.9l-3.8,5.8l-25.3-58.8
			c-1.6-3.1-3-5-4.4-5.8c-1.4-0.7-2.5-1.1-3.4-1.1v-2.6c2.4,0.2,4.9,0.4,7.4,0.6s5.2,0.2,7.8,0.2c3,0,6-0.1,8.8-0.2
			c2.8-0.2,5.5-0.3,7.9-0.5v2.6c-1.9,0-3.6,0.1-5,0.4c-1.5,0.2-2.4,0.9-2.9,2c-0.5,1.1-0.1,3,0.9,5.7l15.4,37.5l-1,0.5l10.8-29.3
			c1.4-3.9,2-7,1.7-9.3c-0.2-2.4-1.1-4.2-2.7-5.4c-1.6-1.2-3.7-1.9-6.4-2.1v-2.6c1.3,0.1,2.6,0.2,3.9,0.2c1.3,0.1,2.6,0.1,3.8,0.2
			c1.2,0,2.4,0.1,3.6,0.1c1.7,0,3.4,0,5.1-0.1C896.6,579.4,898,579.3,899.2,579.2z M872.7,641.6l-4.7,12.4c-0.7,2-1.5,3.8-2.4,5.2
			c-0.9,1.4-1.8,2.6-2.9,3.5c-1.2,1.1-2.7,1.8-4.5,2.3c-1.8,0.5-3.7,0.7-5.8,0.7c-1.9,0-3.7-0.3-5.5-1c-1.8-0.7-3.2-1.6-4.4-3
			c-1.2-1.3-1.8-3-1.8-5.2c0-2.3,0.8-4.1,2.3-5.5c1.6-1.4,3.7-2.1,6.4-2.1c2.4,0,4.3,0.6,5.8,1.8c1.5,1.2,2.3,3,2.3,5.4
			c0,1.6-0.5,3-1.4,4.2c-0.9,1.2-2.2,2.2-3.8,2.8c0.4,0.1,0.8,0.1,1.2,0.2c0.4,0,0.7,0.1,0.9,0.1c2.4,0,4.5-0.8,6.4-2.3
			c1.9-1.6,3.4-4,4.6-7.4l4.4-12.2H872.7z"/>
	</g>
</g>
</svg>
