<?xml version="1.0" encoding="utf-8"?>
<!-- Generator: Adobe Illustrator 25.3.1, SVG Export Plug-In . SVG Version: 6.00 Build 0)  -->
<svg version="1.1" id="Layer_1" xmlns="http://www.w3.org/2000/svg" xmlns:xlink="http://www.w3.org/1999/xlink" x="0px" y="0px"
	 viewBox="0 0 1080 1080" style="enable-background:new 0 0 1080 1080;" xml:space="preserve">
<style type="text/css">
	.st0{fill:#FFFFFF;}
</style>
<g>
	<path class="st0" d="M175.1,213.6v4.5c-3,0.9-6.1,3.2-9.4,6.8c-3.3,3.7-6.9,9.3-10.8,16.9l-43.3,85.9h-8.3l-52.5-96.8
		c-2.8-5.2-5.3-8.6-7.4-10.2c-2.1-1.6-4-2.4-5.6-2.4v-4.7c3.6,0.2,7.4,0.3,11.3,0.6c4,0.2,8.3,0.3,12.9,0.3c6,0,12.4-0.1,19.3-0.2
		c6.9-0.1,13.3-0.4,19.3-0.7v4.7c-3.7,0-7.1,0.3-10.1,0.9c-3,0.6-5,1.9-6.1,3.8c-1,1.9-0.7,4.8,1.1,8.5l36.3,69.5l-5.4,6.3
		l25.6-50.7c4.9-9.9,7.5-17.6,7.7-23.1c0.2-5.5-1.3-9.4-4.7-11.8c-3.4-2.3-8.1-3.5-14.2-3.7v-4.5c4.9,0.2,9.6,0.3,14,0.4
		c4.4,0.2,8.8,0.2,13.1,0.2c3.6,0,6.8-0.1,9.5-0.2C170.3,213.9,172.8,213.7,175.1,213.6z M125.3,296.1v52.5c0,5.4,0.4,9.4,1.3,12.1
		s2.6,4.5,5,5.4c2.5,0.9,6.1,1.5,10.9,1.8v4.5c-3.7-0.3-8.6-0.5-14.6-0.6c-6-0.1-12-0.1-17.9-0.1c-6.4,0-12.6,0-18.5,0.1
		c-5.9,0.1-10.6,0.3-14.2,0.6v-4.5c4.9-0.3,8.6-0.9,11.1-1.8c2.5-0.9,4.1-2.7,4.9-5.4c0.8-2.7,1.2-6.7,1.2-12.1v-46l17,13.9
		L125.3,296.1z"/>
	<path class="st0" d="M235.6,253.3c10.3,0,19.5,2.1,27.5,6.2c8,4.1,14.3,10.6,19.1,19.6c4.7,9,7.1,20.8,7.1,35.4
		c0,14.6-2.4,26.5-7.1,35.4c-4.7,9-11.1,15.5-19.1,19.5c-8,4-17.2,6.1-27.5,6.1c-10.3,0-19.5-2-27.6-6.1c-8.1-4-14.4-10.5-19.1-19.5
		c-4.6-9-7-20.8-7-35.4c0-14.6,2.3-26.5,7-35.4c4.6-9,11-15.5,19.1-19.6C216.1,255.3,225.3,253.3,235.6,253.3z M235.6,257.7
		c-7,0-12.7,4.4-17.2,13.3c-4.4,8.9-6.6,23.4-6.6,43.4c0,20,2.2,34.4,6.6,43.3c4.4,8.8,10.1,13.2,17.2,13.2c6.9,0,12.6-4.4,17-13.2
		c4.5-8.8,6.7-23.2,6.7-43.3c0-20-2.2-34.5-6.7-43.4C248.1,262.2,242.5,257.7,235.6,257.7z"/>
	<path class="st0" d="M423.9,253.9v94.1c0,6.7,1.1,11.7,3.4,14.9c2.2,3.2,6.2,4.8,11.9,4.8v4.7c-4.6-0.4-9.3-0.7-13.9-0.7
		c-5.5,0-10.8,0.2-15.8,0.7c-5,0.4-9.6,1.3-13.8,2.5v-22.4c-3.7,8.2-8.9,14.1-15.4,17.6s-13.5,5.3-21,5.3c-5.8,0-10.7-0.8-14.7-2.4
		c-4-1.6-7.1-3.7-9.5-6.4c-2.5-2.8-4.3-6.6-5.4-11.2c-1-4.6-1.6-10.6-1.6-17.9v-56.7c0-6.7-1.1-11.7-3.2-14.9
		c-2.2-3.2-6.2-4.8-12-4.8v-4.7c4.8,0.4,9.4,0.7,13.9,0.7c5.5,0,10.8-0.3,15.8-0.8c5-0.5,9.6-1.3,13.8-2.4v91.5c0,4,0.3,7.6,1,10.8
		s2.1,5.6,4.1,7.5c2.1,1.9,5.2,2.8,9.4,2.8c4.6,0,8.8-1.3,12.6-4c3.7-2.7,6.7-6.4,8.9-11c2.2-4.6,3.3-9.9,3.3-15.7v-54.9
		c0-6.7-1.1-11.7-3.3-14.9c-2.2-3.2-6.2-4.8-12-4.8v-4.7c4.8,0.4,9.4,0.7,13.9,0.7c5.5,0,10.8-0.3,15.8-0.8
		C415.1,255.8,419.7,255,423.9,253.9z"/>
	<path class="st0" d="M535.5,253.3c4.6,0,8.5,1,11.5,2.9c3.1,1.9,5.3,4.4,6.8,7.4c1.5,3,2.2,6.1,2.2,9.4c0,4.9-1.5,9-4.4,12.3
		c-2.9,3.3-6.8,4.9-11.5,4.9c-4.5,0-8.1-1.2-11-3.6c-2.8-2.4-4.3-5.7-4.3-9.9c0-3.7,0.9-6.9,2.8-9.4c1.9-2.5,4-4.6,6.4-6.1
		c-1.6-0.9-3.5-1.2-5.6-0.9c-3.6,0.3-6.9,1.6-9.9,3.8c-3,2.2-5.5,5-7.6,8.3c-2.1,3.3-3.7,6.8-4.8,10.5c-1.1,3.7-1.7,7.3-1.7,10.8
		v55.4c0,7.3,1.9,12.2,5.6,14.7c3.7,2.5,9.2,3.7,16.4,3.7v4.7c-3.4-0.1-8.4-0.3-14.9-0.6s-13.3-0.3-20.3-0.3
		c-5.8,0-11.6,0.1-17.4,0.3c-5.8,0.2-10.1,0.4-12.9,0.6v-4.7c5.5,0,9.4-1.1,11.8-3.4c2.3-2.2,3.5-6.5,3.5-12.8v-70.6
		c0-6.7-1.1-11.7-3.2-14.9c-2.2-3.2-6.2-4.8-12-4.8v-4.7c4.8,0.4,9.4,0.7,13.9,0.7c5.5,0,10.8-0.3,15.8-0.8c5-0.5,9.6-1.3,13.8-2.4
		v23.3c1.8-4.2,4.1-8.1,7.1-11.7c2.9-3.6,6.4-6.5,10.5-8.9C526.3,254.4,530.7,253.3,535.5,253.3z"/>
	<path class="st0" d="M113.6,439.6c28.7,0,50,6.7,63.8,20.1c13.8,13.4,20.7,32.5,20.7,57.5c0,16.3-3.4,30.5-10.2,42.7
		c-6.8,12.2-16.6,21.6-29.5,28.4c-12.9,6.7-28.5,10.1-46.9,10.1c-2.2,0-5.3-0.1-9.1-0.2c-3.8-0.1-7.8-0.3-11.9-0.3
		c-4.1-0.1-7.9-0.1-11.3-0.1c-6.1,0-12.1,0-17.9,0.1c-5.8,0.1-10.6,0.3-14.3,0.6v-4.5c4.9-0.3,8.6-0.9,11.1-1.8
		c2.5-0.9,4.1-2.7,4.9-5.4c0.8-2.7,1.2-6.7,1.2-12.1V463.3c0-5.5-0.4-9.6-1.2-12.2c-0.8-2.6-2.5-4.4-4.9-5.4
		c-2.5-1-6.2-1.5-11.1-1.7v-4.5c3.7,0.2,8.5,0.3,14.3,0.6c5.8,0.2,11.7,0.3,17.5,0.1c5.4-0.1,11.4-0.3,18.2-0.4
		C103.8,439.7,109.3,439.6,113.6,439.6z M111.6,443.6c-6.9,0-11.4,1.3-13.4,3.8c-2.1,2.5-3.1,7.7-3.1,15.5V575
		c0,7.8,1.1,12.9,3.2,15.5c2.2,2.5,6.7,3.8,13.6,3.8c13.9,0,24.8-2.9,32.6-8.9c7.8-5.9,13.4-14.5,16.6-25.9
		c3.2-11.4,4.8-25.2,4.8-41.5c0-16.7-1.8-30.6-5.3-41.6c-3.5-11-9.2-19.2-17.1-24.7C135.5,446.3,124.9,443.6,111.6,443.6z"/>
	<path class="st0" d="M300.8,479.3c4.6,0,8.5,1,11.5,2.9c3.1,1.9,5.3,4.4,6.8,7.4c1.5,3,2.2,6.1,2.2,9.4c0,4.9-1.5,9-4.4,12.3
		c-2.9,3.3-6.8,4.9-11.5,4.9c-4.5,0-8.1-1.2-11-3.6c-2.8-2.4-4.3-5.7-4.3-9.9c0-3.7,0.9-6.9,2.8-9.4c1.9-2.5,4-4.6,6.4-6.1
		c-1.6-0.9-3.5-1.2-5.6-0.9c-3.6,0.3-6.9,1.6-9.9,3.8c-3,2.2-5.5,5-7.6,8.3c-2.1,3.3-3.7,6.8-4.8,10.5c-1.1,3.7-1.7,7.3-1.7,10.8
		v55.4c0,7.3,1.9,12.2,5.6,14.7c3.7,2.5,9.2,3.7,16.4,3.7v4.7c-3.4-0.1-8.4-0.3-14.9-0.6s-13.3-0.3-20.3-0.3
		c-5.8,0-11.6,0.1-17.4,0.3c-5.8,0.2-10.1,0.4-12.9,0.6v-4.7c5.5,0,9.4-1.1,11.8-3.4c2.3-2.2,3.5-6.5,3.5-12.8v-70.6
		c0-6.7-1.1-11.7-3.2-14.9c-2.2-3.2-6.2-4.8-12-4.8v-4.7c4.8,0.4,9.4,0.7,13.9,0.7c5.5,0,10.8-0.3,15.8-0.8c5-0.5,9.6-1.3,13.8-2.4
		v23.3c1.8-4.2,4.1-8.1,7.1-11.7c2.9-3.6,6.4-6.5,10.5-8.9C291.6,480.4,296,479.3,300.8,479.3z"/>
	<path class="st0" d="M393,479.3c13.1,0,23.5,4,30.9,11.9c7.5,7.9,11.2,20.5,11.2,37.9h-75.5l-0.2-4.3h49.8
		c0.3-7.3-0.1-14.1-1.3-20.3c-1.2-6.2-3.1-11.2-5.7-14.9c-2.6-3.7-6-5.6-10.2-5.6c-5.7,0-10.6,3.3-14.8,10
		c-4.2,6.7-6.8,17.5-7.8,32.6l0.9,1.3c-0.3,1.9-0.5,4-0.6,6.3c-0.1,2.2-0.1,4.5-0.1,6.7c0,10.3,1.5,18.8,4.5,25.6
		c3,6.7,6.9,11.7,11.7,14.8c4.8,3.1,9.7,4.7,14.8,4.7c3.4,0,7-0.5,10.5-1.6c3.6-1,7.1-3,10.5-5.8c3.4-2.8,6.6-6.9,9.4-12.1l4.3,1.8
		c-1.6,5.2-4.4,10.4-8.2,15.6c-3.8,5.2-8.7,9.4-14.7,12.7c-6,3.3-13,4.9-21.1,4.9c-10.2,0-19.1-2.2-26.9-6.7
		c-7.8-4.5-13.8-11.2-18.2-20.1c-4.3-8.9-6.5-19.8-6.5-32.6c0-13.6,2.3-25,6.8-34.3c4.6-9.3,10.9-16.3,18.9-21.2
		C373.4,481.7,382.6,479.3,393,479.3z"/>
	<path class="st0" d="M504.1,479.3c6.3,0,11.7,0.9,16.1,2.7c4.5,1.8,7.8,3.4,9.9,4.7c5.1,3.7,8.1,1.3,9.2-7.2h4.9
		c-0.3,4.3-0.5,9.5-0.7,15.4c-0.1,5.9-0.2,13.8-0.2,23.6h-4.9c-0.7-5.5-2.2-10.9-4.3-16.1c-2.1-5.2-5.2-9.6-9.2-13.1
		c-4-3.5-9.3-5.3-15.9-5.3c-4.6,0-8.5,1.3-11.5,4c-3.1,2.7-4.6,6.5-4.6,11.4c0,4.5,1.3,8.4,4,11.8c2.7,3.4,6.2,6.5,10.4,9.4
		c4.3,2.9,8.7,6.1,13.3,9.5c5.4,3.6,10.2,7.2,14.3,10.9c4.2,3.7,7.5,7.7,10.1,12.1c2.5,4.4,3.8,9.6,3.8,15.6
		c0,6.9-1.9,12.7-5.7,17.6c-3.8,4.9-8.8,8.6-15,11.2c-6.2,2.6-13,3.9-20.5,3.9c-4,0-7.7-0.4-11-1.1c-3.3-0.7-6.2-1.7-8.7-2.9
		c-1.9-1-3.7-2-5.3-2.9c-1.6-0.9-3.2-1.6-4.8-2.2c-1.5-0.7-2.8-0.4-3.9,0.9c-1.1,1.3-2,3.6-2.6,6.7h-4.9c0.3-4.8,0.5-10.6,0.7-17.5
		c0.1-6.9,0.2-16,0.2-27.3h4.9c1,8.2,2.7,15.4,4.8,21.6c2.2,6.2,5.3,11.1,9.5,14.6c4.2,3.5,9.6,5.3,16.1,5.3c2.8,0,5.6-0.6,8.2-1.8
		c2.6-1.2,4.8-3.1,6.5-5.6c1.7-2.5,2.6-6,2.6-10.3c0-6.6-2.2-12-6.7-16.4c-4.5-4.3-10.1-9-16.8-13.9c-5.1-3.7-9.8-7.4-14.2-11
		c-4.4-3.6-8-7.6-10.8-12.1c-2.8-4.5-4.1-9.8-4.1-15.9c0-6.7,1.7-12.3,5.2-16.7c3.4-4.4,8-7.8,13.6-10.1
		C491.7,480.4,497.7,479.3,504.1,479.3z"/>
	<path class="st0" d="M618.2,479.3c6.3,0,11.7,0.9,16.1,2.7c4.5,1.8,7.8,3.4,9.9,4.7c5.1,3.7,8.1,1.3,9.2-7.2h4.9
		c-0.3,4.3-0.5,9.5-0.7,15.4c-0.1,5.9-0.2,13.8-0.2,23.6h-4.9c-0.7-5.5-2.2-10.9-4.3-16.1c-2.1-5.2-5.2-9.6-9.2-13.1
		c-4-3.5-9.3-5.3-15.9-5.3c-4.6,0-8.5,1.3-11.5,4c-3.1,2.7-4.6,6.5-4.6,11.4c0,4.5,1.3,8.4,4,11.8c2.7,3.4,6.2,6.5,10.4,9.4
		c4.3,2.9,8.7,6.1,13.3,9.5c5.4,3.6,10.2,7.2,14.3,10.9c4.2,3.7,7.5,7.7,10.1,12.1c2.5,4.4,3.8,9.6,3.8,15.6
		c0,6.9-1.9,12.7-5.7,17.6c-3.8,4.9-8.8,8.6-15,11.2c-6.2,2.6-13,3.9-20.5,3.9c-4,0-7.7-0.4-11-1.1c-3.3-0.7-6.2-1.7-8.7-2.9
		c-1.9-1-3.7-2-5.3-2.9c-1.6-0.9-3.2-1.6-4.8-2.2c-1.5-0.7-2.8-0.4-3.9,0.9c-1.1,1.3-2,3.6-2.6,6.7h-4.9c0.3-4.8,0.5-10.6,0.7-17.5
		c0.1-6.9,0.2-16,0.2-27.3h4.9c1,8.2,2.7,15.4,4.8,21.6c2.2,6.2,5.3,11.1,9.5,14.6c4.2,3.5,9.6,5.3,16.1,5.3c2.8,0,5.6-0.6,8.2-1.8
		c2.6-1.2,4.8-3.1,6.5-5.6c1.7-2.5,2.6-6,2.6-10.3c0-6.6-2.2-12-6.7-16.4c-4.5-4.3-10.1-9-16.8-13.9c-5.1-3.7-9.8-7.4-14.2-11
		c-4.4-3.6-8-7.6-10.8-12.1c-2.8-4.5-4.1-9.8-4.1-15.9c0-6.7,1.7-12.3,5.2-16.7c3.4-4.4,8-7.8,13.6-10.1
		C605.8,480.4,611.8,479.3,618.2,479.3z"/>
	<path class="st0" d="M720.7,599.9c-6.4,0-11.9-1.2-16.4-3.7c-4.5-2.5-7.8-5.8-10.1-10.1c-2.2-4.3-3.4-9-3.4-14.2
		c0-6.4,1.5-11.7,4.5-15.8c3-4.1,6.8-7.4,11.5-9.9c4.7-2.5,9.7-4.6,14.9-6.3c5.2-1.7,10.2-3.4,14.8-4.9c4.6-1.6,8.4-3.4,11.4-5.5
		c3-2.1,4.5-4.9,4.5-8.3v-16.4c0-4.8-0.7-8.7-2.1-11.8c-1.4-3.1-3.5-5.4-6.3-6.9c-2.8-1.6-6.2-2.4-10.4-2.4c-3.1,0-6.4,0.4-9.9,1.3
		c-3.4,0.9-6.3,2.6-8.5,5.2c3.9,1,6.9,3,9.1,5.8c2.2,2.8,3.3,6.3,3.3,10.3c0,4.6-1.5,8.3-4.6,10.9c-3.1,2.6-6.9,3.9-11.5,3.9
		c-4.9,0-8.7-1.6-11.2-4.7c-2.5-3.1-3.8-6.8-3.8-11c0-4.2,1-7.7,3.1-10.4c2.1-2.8,5-5.3,8.7-7.5c3.7-2.5,8.5-4.6,14.3-6.1
		c5.8-1.5,12.2-2.2,19.1-2.2c6.6,0,12.4,0.7,17.5,2.1c5.1,1.4,9.4,3.9,13,7.5c3.6,3.4,5.9,7.7,7,12.8c1,5.1,1.6,11.3,1.6,18.6v61.4
		c0,3.7,0.4,6.4,1.3,8c0.9,1.6,2.3,2.4,4.3,2.4c1.5,0,2.9-0.4,4.3-1.1c1.3-0.7,2.8-1.8,4.5-3.1l2.5,3.8c-3.3,2.5-6.7,4.6-10.3,6.1
		c-3.6,1.5-7.9,2.2-13,2.2c-5.2,0-9.4-0.7-12.4-2.2c-3.1-1.5-5.3-3.7-6.7-6.5c-1.4-2.8-2.2-6.2-2.4-10.1c-3.6,6-8,10.6-13.2,13.9
		C734.3,598.2,728,599.9,720.7,599.9z M734.1,587.3c3.6,0,6.9-1,10-2.9c3.1-1.9,5.9-4.9,8.4-8.7v-45.3c-1.5,2.2-3.6,4.3-6.4,6.1
		c-2.8,1.8-5.7,3.6-8.9,5.4c-3.1,1.8-6.1,3.8-8.9,6.2c-2.8,2.3-5.1,5.2-6.9,8.5c-1.9,3.4-2.8,7.7-2.8,12.9c0,5.8,1.4,10.3,4.3,13.3
		C725.8,585.8,729.5,587.3,734.1,587.3z"/>
	<path class="st0" d="M858.3,640.4c-8.8,0-16.8-0.8-24-2.5c-7.2-1.6-12.9-4.1-17-7.3c-4.2-3.2-6.3-7.3-6.3-12.2
		c0-4.8,2.1-9,6.3-12.8c4.2-3.7,10.3-6.6,18.4-8.5l1.6,3.6c-2.8,1.6-5,3.9-6.5,6.7c-1.5,2.8-2.2,5.8-2.2,9c0,6.4,2.9,11.4,8.9,14.9
		c5.9,3.5,13.8,5.3,23.6,5.3c6.7,0,12.9-0.9,18.6-2.7c5.7-1.8,10.2-4.6,13.7-8.3c3.4-3.7,5.2-8.4,5.2-13.9c0-4.6-1.7-8.5-5-11.7
		c-3.4-3.1-10.1-4.7-20.1-4.7h-14.8c-5.5,0-10.6-0.6-15.1-1.8c-4.6-1.2-8.2-3.1-10.9-5.8c-2.7-2.7-4-6.4-4-11.2
		c0-5.8,2.4-11.1,7.2-15.8c4.8-4.7,12.3-9.3,22.4-13.8l2.5,2c-3.7,1.9-7.1,4-10,6.3c-2.9,2.2-4.4,5.1-4.4,8.5c0,4.8,3.3,7.2,9.9,7.2
		h25.3c7.8,0,14.7,1,20.7,2.9c6.1,1.9,10.9,5,14.5,9.2c3.6,4.2,5.4,9.7,5.4,16.6c0,7.2-2.3,13.9-7,20.1c-4.6,6.2-11.6,11.2-21,15
		C884.7,638.5,872.8,640.4,858.3,640.4z M860.3,550.5c-8.1,0-15.4-1.2-21.9-3.7c-6.5-2.5-11.6-6.4-15.4-11.7
		c-3.7-5.3-5.6-12.1-5.6-20.3c0-8.2,1.9-14.9,5.6-20.2c3.7-5.2,8.9-9.1,15.4-11.7c6.5-2.5,13.8-3.8,21.9-3.8c8.2,0,15.5,1.3,22,3.8
		c6.4,2.5,11.5,6.4,15.2,11.7c3.7,5.2,5.6,12,5.6,20.2c0,8.2-1.9,15-5.6,20.3c-3.7,5.3-8.8,9.2-15.2,11.7
		C875.9,549.3,868.5,550.5,860.3,550.5z M860.3,546.5c4.5,0,8-2.3,10.6-6.8c2.6-4.6,3.9-12.8,3.9-24.8c0-12-1.3-20.2-3.9-24.8
		c-2.6-4.6-6.2-6.8-10.6-6.8s-8,2.3-10.6,6.8c-2.6,4.6-3.9,12.8-3.9,24.8c0,12,1.3,20.2,3.9,24.8
		C852.3,544.2,855.8,546.5,860.3,546.5z M894.2,498.3l-4.3-1.6c2.2-5.5,5.9-10.2,11-14c5.1-3.8,10.5-5.7,16.1-5.7
		c4.3,0,7.7,1.2,10.2,3.6c2.5,2.4,3.7,5.8,3.7,10.1c0,4.5-1.2,7.8-3.6,9.9c-2.4,2.1-5,3.1-7.8,3.1c-2.5,0-4.9-0.9-7-2.6
		c-2.1-1.7-3.3-4.4-3.6-8.1c-0.3-3.7,0.9-8.3,3.6-13.8l2.2,0.9c-5.8,2.2-10.2,4.7-13,7.4C899,490.2,896.4,493.8,894.2,498.3z"/>
	<path class="st0" d="M1003.8,479.3c13.1,0,23.5,4,30.9,11.9c7.5,7.9,11.2,20.5,11.2,37.9h-75.5l-0.2-4.3h49.8
		c0.3-7.3-0.1-14.1-1.3-20.3c-1.2-6.2-3.1-11.2-5.7-14.9c-2.6-3.7-6-5.6-10.2-5.6c-5.7,0-10.6,3.3-14.8,10
		c-4.2,6.7-6.8,17.5-7.8,32.6l0.9,1.3c-0.3,1.9-0.5,4-0.6,6.3c-0.1,2.2-0.1,4.5-0.1,6.7c0,10.3,1.5,18.8,4.5,25.6
		c3,6.7,6.9,11.7,11.7,14.8c4.8,3.1,9.7,4.7,14.8,4.7c3.4,0,7-0.5,10.5-1.6c3.6-1,7.1-3,10.5-5.8c3.4-2.8,6.6-6.9,9.4-12.1l4.3,1.8
		c-1.6,5.2-4.4,10.4-8.2,15.6c-3.8,5.2-8.7,9.4-14.7,12.7c-6,3.3-13,4.9-21.1,4.9c-10.2,0-19.1-2.2-26.9-6.7
		c-7.8-4.5-13.8-11.2-18.2-20.1c-4.3-8.9-6.5-19.8-6.5-32.6c0-13.6,2.3-25,6.8-34.3c4.6-9.3,10.9-16.3,18.9-21.2
		C984.3,481.7,993.5,479.3,1003.8,479.3z"/>
	<path class="st0" d="M34.1,866.4v-4.5c6.1-0.3,11.4-1.9,15.8-4.9c4.4-3,7.7-8.1,10-15.2c2.2-7.2,3.4-17,3.4-29.4V689.3
		c0-5.5-0.4-9.6-1.2-12.2c-0.8-2.6-2.5-4.4-5-5.4c-2.5-1-6.2-1.5-11-1.7v-4.5c3.4,0.1,8,0.3,13.8,0.4c5.8,0.1,11.8,0.2,18,0.2
		c6.3,0,12.4-0.1,18.5-0.2c6.1-0.1,11-0.3,14.9-0.4v4.5c-4.9,0.1-8.6,0.7-11.1,1.7c-2.5,1-4.1,2.8-4.9,5.4
		c-0.8,2.6-1.2,6.7-1.2,12.2v82c0,6.1,0,12.8-0.1,20c-0.1,7.2-0.4,14.1-0.9,20.8c-0.5,6.7-1.5,12.6-2.8,17.7
		c-2.8,10.5-9,19.2-18.4,26.1C62.3,862.9,49.8,866.4,34.1,866.4z"/>
	<path class="st0" d="M188.3,705.2c10.3,0,19.5,2.1,27.5,6.2c8,4.1,14.3,10.6,19.1,19.6c4.7,9,7.1,20.8,7.1,35.4
		c0,14.6-2.4,26.5-7.1,35.4c-4.7,9-11.1,15.5-19.1,19.5c-8,4-17.2,6.1-27.5,6.1c-10.3,0-19.5-2-27.6-6.1c-8.1-4-14.4-10.5-19.1-19.5
		c-4.6-9-7-20.8-7-35.4c0-14.6,2.3-26.5,7-35.4c4.6-9,11-15.5,19.1-19.6C168.8,707.3,178,705.2,188.3,705.2z M188.3,709.7
		c-7,0-12.7,4.4-17.2,13.3c-4.4,8.9-6.6,23.4-6.6,43.4c0,20,2.2,34.4,6.6,43.3c4.4,8.8,10.1,13.2,17.2,13.2c6.9,0,12.6-4.4,17-13.2
		c4.5-8.8,6.7-23.2,6.7-43.3c0-20-2.2-34.5-6.7-43.4C200.8,714.2,195.2,709.7,188.3,709.7z"/>
	<path class="st0" d="M376.6,705.9v94.2c0,6.7,1.1,11.7,3.4,14.9c2.2,3.2,6.2,4.8,11.9,4.8v4.7c-4.6-0.4-9.3-0.7-13.9-0.7
		c-5.5,0-10.8,0.2-15.8,0.7c-5,0.4-9.6,1.3-13.8,2.5v-22.4c-3.7,8.2-8.9,14.1-15.4,17.6c-6.5,3.5-13.5,5.3-21,5.3
		c-5.8,0-10.7-0.8-14.7-2.4c-4-1.6-7.1-3.7-9.5-6.4c-2.5-2.8-4.3-6.6-5.4-11.2c-1-4.6-1.6-10.6-1.6-17.9v-56.7
		c0-6.7-1.1-11.7-3.2-14.9c-2.2-3.2-6.2-4.8-12-4.8v-4.7c4.8,0.4,9.4,0.7,13.9,0.7c5.5,0,10.8-0.3,15.8-0.8c5-0.5,9.6-1.3,13.8-2.4
		v91.5c0,4,0.3,7.6,1,10.8c0.7,3.1,2.1,5.6,4.1,7.5c2.1,1.9,5.2,2.8,9.4,2.8c4.6,0,8.8-1.3,12.6-4c3.7-2.7,6.7-6.4,8.9-11
		c2.2-4.6,3.3-9.9,3.3-15.7v-54.9c0-6.7-1.1-11.7-3.3-14.9c-2.2-3.2-6.2-4.8-12-4.8v-4.7c4.8,0.4,9.4,0.7,13.9,0.7
		c5.5,0,10.8-0.3,15.8-0.8C367.8,707.7,372.4,707,376.6,705.9z"/>
	<path class="st0" d="M488.2,705.2c4.6,0,8.5,1,11.5,2.9c3.1,1.9,5.3,4.4,6.8,7.4c1.5,3,2.2,6.1,2.2,9.4c0,4.9-1.5,9-4.4,12.3
		c-2.9,3.3-6.8,4.9-11.5,4.9c-4.5,0-8.1-1.2-11-3.6c-2.8-2.4-4.3-5.7-4.3-9.9c0-3.7,0.9-6.9,2.8-9.4c1.9-2.5,4-4.6,6.4-6.1
		c-1.6-0.9-3.5-1.2-5.6-0.9c-3.6,0.3-6.9,1.6-9.9,3.8c-3,2.2-5.5,5-7.6,8.3c-2.1,3.3-3.7,6.8-4.8,10.5c-1.1,3.7-1.7,7.3-1.7,10.8
		v55.4c0,7.3,1.9,12.2,5.6,14.7c3.7,2.5,9.2,3.7,16.4,3.7v4.7c-3.4-0.1-8.4-0.3-14.9-0.6s-13.3-0.3-20.3-0.3
		c-5.8,0-11.6,0.1-17.4,0.3c-5.8,0.2-10.1,0.4-12.9,0.6v-4.7c5.5,0,9.4-1.1,11.8-3.4c2.3-2.2,3.5-6.5,3.5-12.8v-70.6
		c0-6.7-1.1-11.7-3.2-14.9c-2.2-3.2-6.2-4.8-12-4.8v-4.7c4.8,0.4,9.4,0.7,13.9,0.7c5.5,0,10.8-0.3,15.8-0.8c5-0.5,9.6-1.3,13.8-2.4
		v23.3c1.8-4.2,4.1-8.1,7.1-11.7c2.9-3.6,6.4-6.5,10.5-8.9C479,706.4,483.4,705.2,488.2,705.2z"/>
	<path class="st0" d="M608.8,705.2c6.3,0,11.3,0.8,15.1,2.5c3.8,1.6,6.9,3.7,9.3,6.3c2.7,2.8,4.6,6.5,5.7,11s1.7,10.5,1.7,18.2v60.3
		c0,6.3,1.2,10.5,3.5,12.8c2.3,2.2,6.2,3.4,11.8,3.4v4.7c-2.7-0.1-6.8-0.3-12.4-0.6s-11-0.3-16.3-0.3c-5.5,0-10.9,0.1-16.1,0.3
		c-5.2,0.2-9.1,0.4-11.7,0.6v-4.7c4.8,0,8.1-1.1,10.1-3.4c1.9-2.2,2.9-6.5,2.9-12.8v-67.9c0-4-0.4-7.7-1.1-10.9
		c-0.7-3.2-2.2-5.8-4.5-7.6c-2.2-1.9-5.5-2.8-9.6-2.8c-4.9,0-9.3,1.3-13.1,4c-3.8,2.7-6.8,6.4-9,11.1c-2.2,4.7-3.3,10-3.3,15.8v58.3
		c0,6.3,1,10.5,2.9,12.8c1.9,2.2,5.3,3.4,10.1,3.4v4.7c-2.5-0.1-6.4-0.3-11.4-0.6c-5.1-0.2-10.2-0.3-15.5-0.3
		c-5.5,0-11.1,0.1-16.8,0.3c-5.7,0.2-9.9,0.4-12.8,0.6v-4.7c5.5,0,9.4-1.1,11.8-3.4c2.3-2.2,3.5-6.5,3.5-12.8v-70.6
		c0-6.7-1.1-11.7-3.2-14.9c-2.2-3.2-6.2-4.8-12-4.8v-4.7c4.8,0.4,9.4,0.7,13.9,0.7c5.5,0,10.8-0.3,15.8-0.8c5-0.5,9.6-1.3,13.8-2.4
		v22.4c3.7-8.5,8.9-14.5,15.5-17.9C593.9,707,601,705.2,608.8,705.2z"/>
	<path class="st0" d="M732.8,705.2c13.1,0,23.5,4,30.9,11.9c7.5,7.9,11.2,20.5,11.2,37.9h-75.5l-0.2-4.3h49.8
		c0.3-7.3-0.1-14.1-1.3-20.3c-1.2-6.2-3.1-11.2-5.7-14.9c-2.6-3.7-6-5.6-10.2-5.6c-5.7,0-10.6,3.3-14.8,10
		c-4.2,6.7-6.8,17.5-7.8,32.6l0.9,1.3c-0.3,1.9-0.5,4-0.6,6.3c-0.1,2.2-0.1,4.5-0.1,6.7c0,10.3,1.5,18.8,4.5,25.6
		c3,6.7,6.9,11.7,11.7,14.8c4.8,3.1,9.7,4.7,14.8,4.7c3.4,0,7-0.5,10.5-1.6c3.6-1,7.1-3,10.5-5.8c3.4-2.8,6.6-6.9,9.4-12.1l4.3,1.8
		c-1.6,5.2-4.4,10.4-8.2,15.6c-3.8,5.2-8.7,9.4-14.7,12.7c-6,3.3-13,4.9-21.1,4.9c-10.2,0-19.1-2.2-26.9-6.7
		c-7.8-4.5-13.8-11.2-18.2-20.1c-4.3-8.9-6.5-19.8-6.5-32.6c0-13.6,2.3-25,6.8-34.3c4.6-9.3,10.9-16.3,18.9-21.2
		C713.3,707.7,722.5,705.2,732.8,705.2z"/>
	<path class="st0" d="M906.5,708.4v4.7c-2.8,0.6-5.5,2.2-8,4.7c-2.5,2.5-4.8,7-7.1,13.4l-33.2,91l-6.9,10.5l-46.2-107.2
		c-2.8-5.7-5.5-9.2-8.1-10.5c-2.5-1.3-4.6-2-6.3-2v-4.7c4.3,0.4,8.9,0.8,13.6,1s9.4,0.3,14.2,0.3c5.5,0,10.9-0.1,16-0.4
		c5.2-0.3,10-0.6,14.5-0.9v4.7c-3.4,0-6.5,0.2-9.2,0.7c-2.7,0.4-4.4,1.7-5.3,3.7c-0.8,2-0.3,5.5,1.7,10.4l28,68.4l-1.8,0.9
		l19.7-53.4c2.5-7,3.6-12.7,3.1-17c-0.4-4.3-2.1-7.6-4.9-9.9c-2.8-2.2-6.7-3.5-11.7-3.8v-4.7c2.4,0.1,4.8,0.3,7.2,0.4
		c2.4,0.2,4.7,0.3,7,0.3c2.2,0.1,4.4,0.1,6.5,0.1c3.1,0,6.2-0.1,9.3-0.2C901.8,708.9,904.4,708.7,906.5,708.4z M858.3,822.3
		l-8.5,22.6c-1.3,3.7-2.8,6.9-4.4,9.5c-1.6,2.6-3.3,4.7-5.3,6.4c-2.2,1.9-5,3.4-8.2,4.3c-3.2,0.9-6.8,1.3-10.6,1.3
		c-3.4,0-6.8-0.6-10-1.8c-3.2-1.2-5.9-3-8.1-5.4c-2.2-2.4-3.2-5.5-3.2-9.4c0-4.2,1.4-7.5,4.3-10.1c2.8-2.5,6.7-3.8,11.7-3.8
		c4.3,0,7.9,1.1,10.6,3.2c2.8,2.2,4.1,5.4,4.1,9.8c0,2.8-0.8,5.4-2.5,7.6c-1.6,2.2-4,4-6.9,5.2c0.7,0.1,1.5,0.3,2.1,0.3
		c0.7,0.1,1.2,0.1,1.7,0.1c4.3,0,8.2-1.4,11.7-4.3c3.4-2.8,6.2-7.3,8.3-13.5l8.1-22.2H858.3z"/>
</g>
</svg>
